<?xml version="1.0" encoding="UTF-8"?> <svg xmlns="http://www.w3.org/2000/svg" width="167" height="50" viewBox="0 0 167 50" fill="none"> <path d="M24.1504 47.8184C31.5094 45.4036 36.8401 38.4732 36.8401 30.3172V22.8691C34.0389 25.4892 30.7231 27.4723 27.116 28.7023C28.1514 35.2132 27.0859 41.9414 24.1504 47.8184Z" fill="#FFC801"></path> <path d="M18.4401 19.2323C21.5552 19.2323 24.0892 16.6983 24.0892 13.5832C24.0892 10.4681 21.5552 7.93262 18.4401 7.93262C15.325 7.93262 12.791 10.4666 12.791 13.5832C12.791 16.6983 15.325 19.2323 18.4401 19.2323Z" fill="#1890F4"></path> <path d="M19.4996 30.1229C17.1437 36.2202 12.8937 41.4845 7.44531 45.0991C10.5121 47.3826 14.3108 48.7349 18.419 48.7349C18.5548 48.7349 18.6891 48.7273 18.825 48.7243C22.4864 43.1461 24.0077 36.3319 23.0569 29.7456C21.8872 29.9524 20.6994 30.0746 19.4996 30.1229Z" fill="#FFC801"></path> <path d="M15.0577 29.9449C9.40256 29.234 4.13833 26.7408 0 22.8711V30.3177C0 34.8197 1.62545 38.9475 4.31793 42.1501C9.03732 39.2584 12.8029 34.9737 15.0577 29.9449Z" fill="#FFC801"></path> <path d="M18.4172 25.9875C25.7129 25.9875 32.5482 22.4891 36.839 16.6106V1.41406H0V16.6136C4.29378 22.4906 11.1276 25.9875 18.4172 25.9875ZM18.4399 3.76395C23.8535 3.76395 28.259 8.16791 28.259 13.5831C28.259 18.9967 23.855 23.4022 18.4399 23.4022C13.0247 23.4022 8.62077 18.9982 8.62077 13.5831C8.62077 8.16942 13.0262 3.76395 18.4399 3.76395Z" fill="#1890F4"></path> <path d="M52.3899 19.1308C53.7556 20.3134 55.5824 20.9153 57.8139 20.9153C59.1831 20.9153 60.4185 20.6935 61.4886 20.2536C62.5656 19.8101 63.4596 19.1026 64.139 18.1452C64.8218 17.1843 65.1667 16.0193 65.1667 14.6747C65.1667 14.0869 65.0858 13.5308 64.9309 13.0204C64.776 12.5171 64.5895 12.0771 64.3748 11.7146C64.1601 11.3485 63.8398 11.0071 63.4315 10.6974C63.0337 10.3982 62.6782 10.1518 62.3755 9.96879C62.0693 9.78224 61.6364 9.59218 61.0873 9.39859C60.5452 9.20852 60.1229 9.07125 59.8308 8.99029C59.5386 8.90934 59.1057 8.7967 58.5214 8.64887L57.3387 8.36377C57.0818 8.30394 56.7615 8.20186 56.3884 8.06811C56.0223 7.93788 55.7513 7.80765 55.5824 7.68094C55.4134 7.55422 55.2656 7.39232 55.1389 7.19873C55.0192 7.01218 54.9559 6.79747 54.9559 6.55109C54.9559 6.01608 55.1952 5.61835 55.6915 5.33325C56.2018 5.03759 56.8143 4.88976 57.5112 4.88976C58.2926 4.88976 58.9578 5.08686 59.4823 5.47404C60.0032 5.8577 60.2566 6.40678 60.2566 7.14593V7.27969H64.593V7.14593C64.593 5.21358 63.97 3.67543 62.7451 2.5667C61.5202 1.46149 59.7955 0.901855 57.6203 0.901855C55.4627 0.901855 53.7345 1.41574 52.485 2.42591C51.2284 3.44313 50.5878 4.89328 50.5878 6.73764C50.5878 7.18113 50.6336 7.60702 50.7286 8.00476C50.8201 8.39897 50.9327 8.75447 51.063 9.05717C51.1932 9.36691 51.3903 9.66609 51.6437 9.95119C51.8972 10.2328 52.1154 10.458 52.3195 10.6411C52.5272 10.8311 52.8194 11.0212 53.1925 11.2042C53.562 11.3908 53.8542 11.5281 54.0794 11.6266C54.3117 11.7287 54.6461 11.8448 55.072 11.9715C55.4944 12.0983 55.8182 12.1898 56.0435 12.2461L57.022 12.4925C57.564 12.6192 57.9688 12.7177 58.2398 12.7917C58.5038 12.8621 58.8346 12.9712 59.2183 13.1155C59.5949 13.2563 59.88 13.3935 60.056 13.5202C60.232 13.6434 60.3869 13.8159 60.5241 14.0271C60.6544 14.2312 60.7212 14.4671 60.7212 14.731C60.7212 15.3787 60.4432 15.875 59.8695 16.2516C59.2887 16.6352 58.5847 16.8288 57.7822 16.8288C57.381 16.8288 56.9903 16.776 56.6242 16.6704C56.2617 16.5684 55.9344 16.41 55.6457 16.2023C55.3677 15.9982 55.1424 15.7271 54.9805 15.3963C54.8186 15.0654 54.7376 14.6782 54.7376 14.2453V14.1116H50.3203V14.2453C50.3203 16.2973 51.0172 17.9446 52.3899 19.1308Z" fill="#232323"></path> <path d="M78.9001 16.9237L80.2306 20.535H84.9717L77.1789 1.26074H73.1171L65.5742 20.535H70.2063L71.5086 16.9237H78.9001ZM77.4992 13.0766H72.9094L75.1938 6.80439L77.4992 13.0766Z" fill="#232323"></path> <path d="M90.8515 20.5349H94.9168L102.185 1.26416H97.4194L92.8437 14.4387L88.1307 1.26416H83.3086L90.8198 20.4504L90.8515 20.5349Z" fill="#232323"></path> <path d="M116.354 16.4414H108.779V12.7949H115.351V8.81056H108.779V5.3295H116.055V1.26416H104.387V20.5349H116.354V16.4414Z" fill="#232323"></path> <path d="M62.7871 41.2278C62.7871 42.3436 62.4492 43.2552 61.7805 43.931C61.1117 44.6068 60.2353 44.9517 59.1723 44.9517C58.1093 44.9517 57.2364 44.6103 56.5782 43.931C55.9165 43.2552 55.5821 42.3436 55.5821 41.2278V29.4189H51.1895V41.4179C51.1895 43.6529 51.9532 45.5149 53.4562 46.9439C54.9591 48.3729 56.8809 49.098 59.1688 49.098C61.4566 49.098 63.3784 48.3729 64.8814 46.9439C66.3843 45.5114 67.1481 43.6529 67.1481 41.4179V29.4189H62.7836V41.2278H62.7871Z" fill="#232323"></path> <path d="M86.5808 29.4189H81.4525L75.4337 37.9087V29.4189H71.041V48.6932H75.4337V39.6826L81.9417 48.6932H87.2918L79.9988 38.6478L86.5808 29.4189Z" fill="#232323"></path> <path d="M102.488 39.2076C103.114 38.2115 103.431 37.0851 103.431 35.8497C103.431 34.6178 103.135 33.4985 102.558 32.5235C101.977 31.5485 101.161 30.7777 100.129 30.2321C99.1015 29.6901 97.9365 29.4155 96.6729 29.4155H88.8555V48.6898H93.2482V42.1994H95.6733L99.3268 48.623L99.3655 48.6898H104.29L100.038 41.418C101.062 40.9076 101.886 40.1649 102.488 39.2076ZM93.2482 33.4879H96.4019C96.9404 33.4879 97.412 33.59 97.8098 33.7871C98.2005 33.9842 98.5032 34.2587 98.7038 34.6037C98.908 34.9521 99.01 35.3639 99.01 35.8286C99.01 36.522 98.7812 37.064 98.3061 37.4969C97.8344 37.9228 97.1938 38.1411 96.3983 38.1411H93.2446V33.4879H93.2482Z" fill="#232323"></path> <path d="M112.197 29.4189L104.654 48.6932H109.286L110.589 45.0819H117.98L119.311 48.6932H124.052L116.259 29.4189H112.197ZM116.576 41.2348H111.982L114.267 34.9626L116.576 41.2348Z" fill="#232323"></path> <path d="M130.533 29.4189H126.141V48.6932H130.533V29.4189Z" fill="#232323"></path> <path d="M146.67 40.7385L138.532 29.4189H134.611V48.6932H138.923V37.1026L147.29 48.6404L147.332 48.6932H150.95V29.4189H146.67V40.7385Z" fill="#232323"></path> <path d="M159.422 44.5997V40.9532H165.997V36.9689H159.422V33.4878H166.701V29.4189H155.033V48.6932H167V44.5997H159.422Z" fill="#232323"></path> </svg> 